<?xml version="1.0" encoding="UTF-8"?>
<svg version="1.1" xmlns="http://www.w3.org/2000/svg" width="512" height="512">
<path d="M0 0 C1.70095746 1.69874699 3.38583076 3.4111238 5.06225586 5.1340332 C6.26881836 6.3405957 6.26881836 6.3405957 7.49975586 7.5715332 C8.34538086 8.4171582 9.19100586 9.2627832 10.06225586 10.1340332 C10.59979492 10.62516602 11.13733398 11.11629883 11.69116211 11.62231445 C28.39540374 27.35010772 40.56208171 48.44194266 50.06225586 69.1340332 C50.51810059 70.12040771 50.51810059 70.12040771 50.9831543 71.12670898 C56.41759852 83.07146659 59.96826911 95.40108772 63.06225586 108.1340332 C63.31749023 109.18204102 63.31749023 109.18204102 63.57788086 110.2512207 C75.9094043 162.34127661 65.38386375 219.78823304 37.57006836 265.1887207 C33.93595031 270.97765698 30.05560539 276.58771441 26.06225586 282.1340332 C31.7142329 289.03987882 38.04951074 295.24010224 44.36987305 301.5234375 C45.61895986 302.76896372 46.86780911 304.01472821 48.11643982 305.26071167 C50.794707 307.9324536 53.47447412 310.60267854 56.15538788 313.27176476 C60.39382853 317.49185268 64.62786783 321.71633794 68.86114502 325.94160461 C80.89562657 337.95197665 92.93604515 349.95638657 104.98071289 361.95654297 C111.64112039 368.59241424 118.2979386 375.23186515 124.95091558 381.87518626 C129.15949054 386.07721667 133.37253368 390.27469913 137.5889287 394.46888196 C140.20673467 397.07497169 142.82036292 399.68521965 145.43281746 402.29667282 C146.64609011 403.50779539 147.86108786 404.71719258 149.0779171 405.92474174 C150.73682744 407.57148633 152.38948021 409.22426761 154.04071045 410.87870789 C154.96761562 411.80247066 155.8945208 412.72623343 156.84951401 413.67798901 C161.34921626 418.67245667 161.5026857 422.64757501 161.37475586 429.2199707 C160.7977001 434.60101568 158.31257799 437.08262596 154.31225586 440.4465332 C149.92956188 442.72216277 145.95193146 443.82012911 141.11942148 442.67274588 C136.20253064 440.90250519 132.73877284 438.5202379 129.08898926 434.76203918 C128.54312495 434.220447 127.99726064 433.67885481 127.43485498 433.12085074 C125.62345337 431.31763218 123.83041493 429.49723165 122.03686523 427.67626953 C120.73628378 426.3742766 119.43459813 425.07338587 118.13189697 423.77351379 C114.60880411 420.25185257 111.10131596 416.7150143 107.59646416 413.17521119 C103.92724832 409.47469053 100.24382125 405.78837077 96.56188965 402.10050964 C89.5963848 395.11947858 82.64372126 388.12580273 75.69560099 381.12747353 C67.78285428 373.15879565 59.85586642 365.20434943 51.92766094 357.25105631 C35.62331708 340.89448193 19.33690454 324.52015052 3.06225586 308.1340332 C2.36166046 308.73518448 2.36166046 308.73518448 1.64691162 309.34848022 C1.02697327 309.88018829 0.40703491 310.41189636 -0.23168945 310.9597168 C-0.84312805 311.48423431 -1.45456665 312.00875183 -2.08453369 312.54916382 C-38.977468 344.10007706 -85.04512474 363.70515106 -133.93774414 365.1340332 C-134.96254883 365.17399414 -135.98735352 365.21395508 -137.04321289 365.25512695 C-195.61941619 366.44484673 -248.67310159 343.56075631 -290.69165039 303.5090332 C-296.92886908 297.40193729 -302.62223984 291.05719876 -307.93774414 284.1340332 C-309.10563477 282.61616211 -309.10563477 282.61616211 -310.29711914 281.06762695 C-334.55748831 248.72695826 -350.76253347 207.12217995 -351.17602539 166.41918945 C-351.18581924 165.61431091 -351.1956131 164.80943237 -351.20570374 163.98016357 C-351.7856738 103.89858546 -333.05935314 50.68753826 -290.93774414 7.1340332 C-290.19266602 6.33739258 -289.44758789 5.54075195 -288.67993164 4.7199707 C-282.83261718 -1.38626543 -276.32024705 -6.51352081 -269.59545898 -11.60522461 C-268.16256581 -12.69498313 -266.74582581 -13.80592038 -265.33227539 -14.9206543 C-189.5829985 -72.96700003 -79.87821563 -65.07640461 0 0 Z M-224.93774414 -0.8659668 C-226.1043457 -0.25108398 -227.27094727 0.36379883 -228.47290039 0.99731445 C-258.82437076 17.52466528 -283.13293179 43.59319156 -298.93774414 74.1340332 C-299.28434082 74.7959668 -299.6309375 75.45790039 -299.98803711 76.13989258 C-321.11220839 116.97929558 -323.93948317 164.39673955 -310.68774414 208.1340332 C-301.82637295 235.7763763 -287.00389094 259.28159538 -266.93774414 280.1340332 C-266.01348633 281.15303711 -266.01348633 281.15303711 -265.07055664 282.19262695 C-236.97785776 312.22060064 -191.64398299 330.51559238 -150.93774414 332.1340332 C-149.9617627 332.17488037 -149.9617627 332.17488037 -148.96606445 332.21655273 C-120.19779259 333.25755301 -91.90689067 327.53150768 -65.93774414 315.1340332 C-65.21393555 314.79001465 -64.49012695 314.44599609 -63.74438477 314.09155273 C-47.61205693 306.29086671 -33.24553915 296.17830566 -20.46411133 283.62963867 C-18.93065559 282.12708751 -17.37734962 280.64750915 -15.82055664 279.16918945 C16.62950052 248.00194606 34.30999746 202.92594677 35.34790039 158.2800293 C35.73351406 118.49170999 23.34100714 79.7103289 -0.93774414 48.1340332 C-1.62094727 47.2265332 -2.30415039 46.3190332 -3.00805664 45.3840332 C-18.4912871 25.60317603 -37.84987637 9.9358048 -59.93774414 -1.8659668 C-60.53699707 -2.18758789 -61.13625 -2.50920898 -61.75366211 -2.84057617 C-83.677459 -14.3645445 -109.18416505 -21.08605951 -133.93774414 -21.8659668 C-135.12625977 -21.90592773 -136.31477539 -21.94588867 -137.53930664 -21.98706055 C-168.06104004 -22.49876614 -198.13823876 -15.53147081 -224.93774414 -0.8659668 Z " fill="#000000" transform="translate(350.937744140625,61.865966796875)"/>
</svg>
