<svg width="12" height="12" viewBox="0 0 12 12" fill="none" xmlns="http://www.w3.org/2000/svg">
<path d="M9.07864 8.44192L8.48514 9.02887C8.04769 9.45817 7.48014 10.0102 6.78219 10.6849C6.34609 11.1066 5.65419 11.1066 5.21814 10.6848L3.47257 8.98687C3.25319 8.77147 3.06956 8.58982 2.92164 8.44192C1.22143 6.74172 1.22143 3.98512 2.92164 2.28492C4.62184 0.584714 7.37844 0.584714 9.07864 2.28492C10.7788 3.98512 10.7788 6.74172 9.07864 8.44192ZM7.25024 5.50077C7.25024 4.81035 6.69054 4.25066 6.00014 4.25066C5.30974 4.25066 4.75003 4.81035 4.75003 5.50077C4.75003 6.19117 5.30974 6.75087 6.00014 6.75087C6.69054 6.75087 7.25024 6.19117 7.25024 5.50077Z" fill="url(#paint0_linear_1260_1227)"/>
<defs>
<linearGradient id="paint0_linear_1260_1227" x1="6.00014" y1="1.00977" x2="6.00014" y2="11.0012" gradientUnits="userSpaceOnUse">
<stop stop-color="#999999"/>
<stop offset="1" stop-color="#C2C2C2"/>
</linearGradient>
</defs>
</svg>
