<svg xmlns="http://www.w3.org/2000/svg" width="51.397" height="51.176" viewBox="0 0 51.397 51.176">
  <g id="Artboard_47" transform="translate(1.002 1)">
    <path id="Icon_feather-phone" d="M51.389,39.13v7.407a5.007,5.007,0,0,1-4.938,4.938h-.412a49.573,49.573,0,0,1-21.4-7.613A46.311,46.311,0,0,1,9.826,29.048,47.34,47.34,0,0,1,2.007,7.65,4.9,4.9,0,0,1,6.534,2.3h7.819a5.069,5.069,0,0,1,4.938,4.321,38.535,38.535,0,0,0,1.646,7,5.094,5.094,0,0,1-1.029,5.144l-3.086,3.086A39.388,39.388,0,0,0,31.636,36.661l3.086-3.086a4.479,4.479,0,0,1,5.144-1.029,26.69,26.69,0,0,0,7,1.646,4.928,4.928,0,0,1,4.527,4.938Z" transform="translate(-1.993 -2.3)" fill="none" stroke="#832729" stroke-linecap="round" stroke-linejoin="round" stroke-width="2"/>
  </g>
</svg>
