<svg width="207" height="135" viewBox="0 0 207 135" fill="none" xmlns="http://www.w3.org/2000/svg">
<path d="M36.4471 130.047H27.5215V72.915H77.5111H100.72V130.047H36.4471Z" fill="#F7DBB3"/>
<path d="M29.8839 75.2409H79.8735H100.718V72.9131H77.5091H27.5195V130.045H29.8839V75.2409Z" fill="#DEAD92"/>
<path d="M84.3367 121.573C84.3367 121.082 84.8582 120.685 85.5019 120.685L96.0593 120.685C96.703 120.685 97.2246 121.082 97.2246 121.573C97.2246 122.064 96.703 122.462 96.0593 122.462L85.5019 122.462C84.8582 122.462 84.3367 122.064 84.3367 121.573Z" fill="#EDAE7E"/>
<path d="M84.3367 125.129C84.3367 124.638 84.8582 124.24 85.5019 124.24L96.0593 124.24C96.703 124.24 97.2246 124.638 97.2246 125.129C97.2246 125.62 96.703 126.018 96.0593 126.018L85.5019 126.018C84.8582 126.018 84.3367 125.62 84.3367 125.129Z" fill="#EDAE7E"/>
<path d="M84.3367 117.572C84.3367 117.081 84.8582 116.684 85.5019 116.684L96.0593 116.684C96.703 116.684 97.2246 117.081 97.2246 117.572C97.2246 118.063 96.703 118.461 96.0593 118.461L85.5019 118.461C84.8582 118.461 84.3367 118.063 84.3367 117.572Z" fill="#EDAE7E"/>
<path d="M57.6765 90.4641C57.6765 89.7276 58.1981 89.1309 58.8418 89.1309L69.3992 89.1309C70.0429 89.1309 70.5645 89.7276 70.5645 90.4641C70.5645 91.2006 70.0429 91.7973 69.3992 91.7973L58.8418 91.7973C58.1981 91.7973 57.6765 91.2006 57.6765 90.4641Z" fill="#B2957F"/>
<path d="M102.117 66.4648V81.1304H97.2365H76.095H30.5579H25.6777V66.4648H60.7024H65.5808H70.4609H102.117Z" fill="#E9D0AE"/>
<path d="M28.2585 69.3984H63.2834H68.1617H73.0419H102.117V66.4648H70.4609H65.5808H60.7024H25.6777V81.1304H28.2585V69.3984Z" fill="#DEAD92"/>
<path d="M115.453 130.047H106.527V72.915H156.517H179.726V130.047H115.453Z" fill="#F7DBB3"/>
<path d="M108.89 75.2409H158.879H179.724V72.9131H156.515H106.525V130.045H108.89V75.2409Z" fill="#DEAD92"/>
<path d="M163.343 121.573C163.343 121.082 163.864 120.685 164.508 120.685L175.065 120.685C175.709 120.685 176.23 121.082 176.23 121.573C176.23 122.064 175.709 122.462 175.065 122.462L164.508 122.462C163.864 122.462 163.343 122.064 163.343 121.573Z" fill="#EDAE7E"/>
<path d="M163.343 125.129C163.343 124.638 163.864 124.24 164.508 124.24L175.065 124.24C175.709 124.24 176.23 124.638 176.23 125.129C176.23 125.62 175.709 126.018 175.065 126.018L164.508 126.018C163.864 126.018 163.343 125.62 163.343 125.129Z" fill="#EDAE7E"/>
<path d="M163.343 117.572C163.343 117.081 163.864 116.684 164.508 116.684L175.065 116.684C175.709 116.684 176.23 117.081 176.23 117.572C176.23 118.063 175.709 118.461 175.065 118.461L164.508 118.461C163.864 118.461 163.343 118.063 163.343 117.572Z" fill="#EDAE7E"/>
<path d="M136.682 90.4641C136.682 89.7276 137.204 89.1309 137.848 89.1309L148.405 89.1309C149.049 89.1309 149.57 89.7276 149.57 90.4641C149.57 91.2006 149.049 91.7973 148.405 91.7973L137.848 91.7973C137.204 91.7973 136.682 91.2006 136.682 90.4641Z" fill="#B2957F"/>
<path d="M181.123 66.4648V81.1304H176.242H155.101H109.564H104.684V66.4648H139.708H144.587H149.467H181.123Z" fill="#E9D0AE"/>
<path d="M107.264 69.3984H142.289H147.168H152.048H181.123V66.4648H149.467H144.587H139.708H104.684V81.1304H107.264V69.3984Z" fill="#DEAD92"/>
<path d="M77.7792 64.4124H68.8535V7.28027H118.843H142.052V64.4124H77.7792Z" fill="#F7DBB3"/>
<path d="M71.2218 9.60609H121.211H142.056V7.27832H118.847H68.8574V64.4104H71.2218V9.60609Z" fill="#DEAD92"/>
<path d="M125.669 55.9386C125.669 55.4476 126.19 55.0498 126.834 55.0498L137.391 55.0498C138.035 55.0498 138.557 55.4476 138.557 55.9386C138.557 56.4296 138.035 56.8275 137.391 56.8275L126.834 56.8275C126.19 56.8275 125.669 56.4296 125.669 55.9386Z" fill="#EDAE7E"/>
<path d="M125.669 59.4943C125.669 59.0033 126.19 58.6055 126.834 58.6055L137.391 58.6055C138.035 58.6055 138.557 59.0033 138.557 59.4943C138.557 59.9853 138.035 60.3831 137.391 60.3831L126.834 60.3831C126.19 60.3831 125.669 59.9853 125.669 59.4943Z" fill="#EDAE7E"/>
<path d="M125.669 51.9377C125.669 51.4467 126.19 51.0488 126.834 51.0488L137.391 51.0488C138.035 51.0488 138.557 51.4467 138.557 51.9377C138.557 52.4286 138.035 52.8265 137.391 52.8265L126.834 52.8265C126.19 52.8265 125.669 52.4286 125.669 51.9377Z" fill="#EDAE7E"/>
<path d="M99.0085 24.8293C99.0085 24.0928 99.5301 23.4961 100.174 23.4961L110.731 23.4961C111.375 23.4961 111.896 24.0929 111.896 24.8293C111.896 25.5658 111.375 26.1626 110.731 26.1626L100.174 26.1626C99.5301 26.1626 99.0085 25.5658 99.0085 24.8293Z" fill="#B2957F"/>
<path d="M143.449 0.830078V15.4957H138.568H117.427H71.89H67.0098V0.830078H102.034H106.913H111.793H143.449Z" fill="#E9D0AE"/>
<path d="M69.5906 3.7636H104.615H109.494H114.374H143.449V0.830078H111.793H106.913H102.034H67.0098V15.4957H69.5906V3.7636Z" fill="#DEAD92"/>
<rect x="16.8125" y="84.9238" width="161.387" height="35.1794" rx="2" transform="rotate(-23.6334 16.8125 84.9238)" fill="#D54747"/>
<path d="M47.5816 99.0535C46.751 99.4169 45.9322 99.6079 45.1252 99.6262C44.3251 99.6271 43.5605 99.4595 42.8314 99.1237C42.1091 98.7702 41.4345 98.2431 40.8077 97.5423C40.1877 96.8239 39.6425 95.9273 39.1722 94.8523C38.7018 93.7774 38.4158 92.7746 38.3142 91.844C38.2194 90.8958 38.29 90.0426 38.5259 89.2844C38.7686 88.5087 39.1644 87.8334 39.7133 87.2585C40.2691 86.666 40.9622 86.188 41.7929 85.8246C42.6235 85.4611 43.4389 85.279 44.239 85.2781C45.0459 85.2598 45.8106 85.4273 46.5328 85.7807C47.262 86.1166 47.9365 86.6437 48.5565 87.3621C49.1834 88.0629 49.732 88.9508 50.2023 90.0257C50.6727 91.1006 50.9553 92.1122 51.05 93.0604C51.1516 93.9911 51.0811 94.8442 50.8383 95.6199C50.6025 96.3781 50.2067 97.0534 49.6509 97.6459C49.102 98.2208 48.4123 98.69 47.5816 99.0535ZM46.7718 97.2029C47.2604 96.9891 47.6689 96.7085 47.9971 96.3611C48.3376 96.0083 48.5789 95.6117 48.7208 95.1712C48.8697 94.7131 48.9219 94.2172 48.8776 93.6836C48.8333 93.1499 48.6828 92.5899 48.4263 92.0036L47.5443 89.9881C47.2878 89.4018 46.9785 88.9113 46.6166 88.5166C46.2547 88.1219 45.8577 87.8299 45.4256 87.6406C45.0003 87.4337 44.5426 87.3357 44.0524 87.3464C43.5745 87.3518 43.0913 87.4613 42.6027 87.6751C42.1018 87.8943 41.6873 88.1776 41.359 88.525C41.0308 88.8724 40.7922 89.2751 40.6434 89.7332C40.5014 90.1737 40.4526 90.6608 40.4969 91.1945C40.5412 91.7281 40.6916 92.2881 40.9482 92.8745L41.8302 94.8899C42.0867 95.4763 42.396 95.9668 42.7579 96.3615C43.1198 96.7561 43.5134 97.0569 43.9386 97.2638C44.3708 97.4531 44.8258 97.5451 45.3037 97.5397C45.7817 97.5343 46.271 97.422 46.7718 97.2029ZM51.5801 81.8038L55.0277 89.6825C55.5035 90.7696 56.0692 91.4972 56.7251 91.8651C57.3809 92.2331 58.2097 92.1979 59.2113 91.7596C60.2129 91.3213 60.8011 90.7364 60.9759 90.005C61.1507 89.2736 61.0002 88.3643 60.5245 87.2772L57.0769 79.3985L59.1107 78.5085L62.414 86.0574C62.8256 86.998 63.0955 87.8477 63.2238 88.6066C63.3522 89.3654 63.3259 90.0537 63.145 90.6714C62.9587 91.2768 62.6083 91.8231 62.0938 92.3102C61.5915 92.792 60.9006 93.2253 60.0211 93.6102C59.1416 93.995 58.3484 94.2111 57.6414 94.2585C56.9467 94.3005 56.3137 94.1845 55.7427 93.9105C55.1662 93.6242 54.6428 93.1765 54.1725 92.5673C53.7022 91.9581 53.2612 91.1832 52.8496 90.2426L49.5463 82.6937L51.5801 81.8038ZM67.3615 77.0812L72.1561 88.0381L70.0856 88.9441L65.291 77.9872L61.4799 79.6549L60.6782 77.8226L70.3708 73.5813L71.1726 75.4135L67.3615 77.0812ZM86.6259 81.9683C85.7953 82.3318 84.9765 82.5227 84.1695 82.5411C83.3694 82.5419 82.6048 82.3744 81.8756 82.0385C81.1534 81.6851 80.4788 81.1579 79.852 80.4571C79.232 79.7387 78.6868 78.8421 78.2164 77.7672C77.7461 76.6922 77.4601 75.6895 77.3585 74.7588C77.2637 73.8106 77.3343 72.9574 77.5701 72.1993C77.8129 71.4236 78.2087 70.7483 78.7576 70.1733C79.3133 69.5808 80.0065 69.1029 80.8371 68.7394C81.6678 68.3759 82.4831 68.1938 83.2832 68.193C84.0902 68.1746 84.8548 68.3421 85.5771 68.6955C86.3062 69.0314 86.9808 69.5585 87.6008 70.2769C88.2276 70.9777 88.7762 71.8656 89.2466 72.9405C89.717 74.0155 89.9995 75.027 90.0943 75.9752C90.1959 76.9059 90.1253 77.7591 89.8826 78.5348C89.6467 79.2929 89.2509 79.9682 88.6952 80.5607C88.1463 81.1356 87.4565 81.6048 86.6259 81.9683ZM85.8161 80.1177C86.3047 79.9039 86.7131 79.6233 87.0414 79.2759C87.3819 78.9232 87.6231 78.5265 87.7651 78.086C87.9139 77.6279 87.9662 77.132 87.9219 76.5984C87.8776 76.0647 87.7271 75.5047 87.4706 74.9184L86.5886 72.9029C86.332 72.3166 86.0228 71.8261 85.6609 71.4314C85.299 71.0367 84.902 70.7447 84.4698 70.5554C84.0446 70.3486 83.5869 70.2505 83.0967 70.2612C82.6188 70.2666 82.1355 70.3762 81.6469 70.59C81.1461 70.8091 80.7316 71.0924 80.4033 71.4398C80.075 71.7872 79.8365 72.1899 79.6876 72.648C79.5457 73.0886 79.4968 73.5757 79.5412 74.1093C79.5855 74.643 79.7359 75.203 79.9925 75.7893L80.8744 77.8048C81.131 78.3911 81.4402 78.8816 81.8021 79.2763C82.164 79.671 82.5576 79.9717 82.9829 80.1786C83.415 80.3679 83.8701 80.4599 84.348 80.4545C84.8259 80.4491 85.3153 80.3369 85.8161 80.1177ZM94.2602 78.3657L88.6639 65.5765L96.6525 62.0808L97.4543 63.913L91.5361 66.5028L93.0915 70.0573L98.3501 67.7563L99.1519 69.5885L93.8933 71.8896L96.3307 77.4597L94.2602 78.3657ZM112.233 70.7632C111.158 71.2335 110.156 71.439 109.228 71.3795C108.312 71.3147 107.44 71.07 106.614 70.6456L107.458 68.6827C108.151 69.0346 108.827 69.2334 109.488 69.2792C110.16 69.3196 110.845 69.1875 111.541 68.8828C112.359 68.5247 112.896 68.0715 113.151 67.5233C113.406 66.9751 113.397 66.3896 113.124 65.7666C112.905 65.2658 112.585 64.9329 112.164 64.7681C111.742 64.6032 111.127 64.6105 110.318 64.7899L109.093 65.0855C107.746 65.3986 106.632 65.3983 105.753 65.0846C104.873 64.7709 104.209 64.101 103.76 63.0749C103.514 62.513 103.396 61.9607 103.406 61.4178C103.423 60.8574 103.554 60.3417 103.799 59.8706C104.051 59.382 104.414 58.9319 104.889 58.5204C105.364 58.1088 105.943 57.7534 106.627 57.4541C107.592 57.0318 108.504 56.8367 109.362 56.8687C110.215 56.8885 111.03 57.1064 111.809 57.5224L110.923 59.4384C110.406 59.1552 109.853 58.9896 109.265 58.9415C108.676 58.8934 108.027 59.0244 107.319 59.3344C106.586 59.6551 106.082 60.0503 105.807 60.5198C105.533 60.9894 105.518 61.5051 105.764 62.067C105.999 62.6045 106.34 62.9354 106.788 63.0598C107.23 63.172 107.828 63.1429 108.584 62.9726L109.824 62.7137C111.213 62.3968 112.329 62.4032 113.172 62.733C114.027 63.0574 114.679 63.7326 115.128 64.7587C115.39 65.3572 115.524 65.9462 115.531 66.5257C115.537 67.1052 115.416 67.6602 115.168 68.1908C114.926 68.7039 114.562 69.1838 114.073 69.6304C113.579 70.0649 112.966 70.4424 112.233 70.7632ZM118.538 54.6871L123.333 65.644L121.262 66.55L116.468 55.5931L112.656 57.2608L111.855 55.4286L121.547 51.1872L122.349 53.0195L118.538 54.6871ZM133.427 61.4888C132.597 61.8522 131.778 62.0432 130.971 62.0615C130.171 62.0624 129.406 61.8948 128.677 61.559C127.955 61.2055 127.28 60.6784 126.653 59.9776C126.033 59.2592 125.488 58.3626 125.018 57.2876C124.547 56.2127 124.261 55.2099 124.16 54.2793C124.065 53.3311 124.136 52.4779 124.371 51.7197C124.614 50.944 125.01 50.2687 125.559 49.6938C126.115 49.1013 126.808 48.6233 127.638 48.2599C128.469 47.8964 129.284 47.7143 130.085 47.7134C130.892 47.6951 131.656 47.8626 132.378 48.216C133.108 48.5519 133.782 49.079 134.402 49.7974C135.029 50.4982 135.578 51.3861 136.048 52.461C136.518 53.5359 136.801 54.5475 136.896 55.4957C136.997 56.4264 136.927 57.2795 136.684 58.0552C136.448 58.8134 136.052 59.4887 135.496 60.0812C134.948 60.6561 134.258 61.1253 133.427 61.4888ZM132.617 59.6382C133.106 59.4244 133.514 59.1438 133.843 58.7964C134.183 58.4436 134.424 58.047 134.566 57.6065C134.715 57.1484 134.768 56.6525 134.723 56.1188C134.679 55.5852 134.528 55.0252 134.272 54.4389L133.39 52.4234C133.133 51.8371 132.824 51.3466 132.462 50.9519C132.1 50.5572 131.703 50.2652 131.271 50.0759C130.846 49.869 130.388 49.7709 129.898 49.7817C129.42 49.787 128.937 49.8966 128.448 50.1104C127.947 50.3296 127.533 50.6129 127.205 50.9603C126.876 51.3077 126.638 51.7104 126.489 52.1685C126.347 52.609 126.298 53.0961 126.342 53.6298C126.387 54.1634 126.537 54.7234 126.794 55.3098L127.676 57.3252C127.932 57.9116 128.242 58.4021 128.603 58.7968C128.965 59.1914 129.359 59.4922 129.784 59.6991C130.216 59.8884 130.671 59.9804 131.149 59.975C131.627 59.9696 132.117 59.8573 132.617 59.6382ZM145.958 56.0054C144.285 56.7376 142.726 56.7504 141.281 56.0435C139.831 55.3244 138.636 53.8899 137.695 51.7401C137.225 50.6652 136.933 49.6651 136.819 48.7397C136.705 47.8144 136.757 46.9693 136.976 46.2043C137.194 45.4393 137.572 44.772 138.108 44.2024C138.652 43.6152 139.339 43.1399 140.17 42.7765C141.281 42.2901 142.316 42.1281 143.275 42.2907C144.246 42.4479 145.154 42.9093 145.999 43.675L144.675 45.3895C144.188 44.8749 143.635 44.5421 143.015 44.391C142.403 44.2223 141.724 44.301 140.979 44.627C139.99 45.06 139.361 45.7353 139.093 46.653C138.825 47.5707 138.951 48.622 139.469 49.8069L140.319 51.7491C140.837 52.9339 141.525 53.7393 142.381 54.1653C143.236 54.5912 144.159 54.5877 145.148 54.1548C145.918 53.818 146.455 53.35 146.761 52.7507C147.073 52.1338 147.209 51.463 147.168 50.7385L149.277 51.0167C149.255 52.1321 148.975 53.1208 148.435 53.9828C147.895 54.8448 147.07 55.519 145.958 56.0054ZM153.523 45.3161L152.646 48.1013L154.378 52.059L152.308 52.965L146.711 40.1758L148.782 39.2698L151.62 45.756L151.693 45.7239L152.507 42.5952L154.132 36.9286L156.551 35.8703L154.345 43.2536L162.513 48.4991L160.022 49.5895L153.523 45.3161Z" fill="white"/>
<line y1="133.17" x2="207" y2="133.17" stroke="#E5E5E5" stroke-width="2"/>
</svg>
