<svg width="16" height="18" viewBox="0 0 16 18" fill="none" xmlns="http://www.w3.org/2000/svg">
<path d="M13.1306 13.0682L12.1414 14.0465C11.4123 14.762 10.4664 15.682 9.30317 16.8065C8.57633 17.5094 7.42317 17.5093 6.69642 16.8064L3.78713 13.9765C3.4215 13.6175 3.11544 13.3147 2.86891 13.0682C0.0352337 10.2345 0.0352337 5.64021 2.86891 2.80653C5.70258 -0.0271443 10.2969 -0.0271443 13.1306 2.80653C15.9642 5.64021 15.9642 10.2345 13.1306 13.0682ZM10.0833 8.16629C10.0833 7.01558 9.15042 6.08276 7.99975 6.08276C6.84908 6.08276 5.91623 7.01558 5.91623 8.16629C5.91623 9.31696 6.84908 10.2498 7.99975 10.2498C9.15042 10.2498 10.0833 9.31696 10.0833 8.16629Z" fill="url(#paint0_linear_1486_1285)"/>
<defs>
<linearGradient id="paint0_linear_1486_1285" x1="7.99974" y1="0.681274" x2="7.99974" y2="17.3336" gradientUnits="userSpaceOnUse">
<stop stop-color="#999999"/>
<stop offset="1" stop-color="#C2C2C2"/>
</linearGradient>
</defs>
</svg>
