<svg width="21" height="18" viewBox="0 0 21 18" fill="none" xmlns="http://www.w3.org/2000/svg">
<path fill-rule="evenodd" clip-rule="evenodd" d="M8.83968 0.824329C9.51984 -0.276087 10.6242 -0.273465 11.3028 0.824329L19.7338 14.4648C20.6418 15.9338 19.9804 17.1247 18.2574 17.1247H1.88508C0.161647 17.1247 -0.50232 15.9386 0.408618 14.4648L8.83968 0.824329ZM9.56587 1.11711C9.83739 0.678348 10.2785 0.679729 10.5492 1.11711L19.1524 15.0183C19.6051 15.7499 19.2664 16.343 18.4162 16.343H1.69945C0.840144 16.343 0.508138 15.7538 0.963273 15.0183L9.56587 1.11711ZM10.0715 5.39872C9.63977 5.39872 9.28978 5.75288 9.28978 6.17814V10.8732C9.28978 11.3036 9.63676 11.6526 10.0715 11.6526C10.5032 11.6526 10.8532 11.2984 10.8532 10.8732V6.17814C10.8532 5.74768 10.5063 5.39872 10.0715 5.39872ZM10.0715 14.7795C10.5032 14.7795 10.8532 14.4295 10.8532 13.9978C10.8532 13.566 10.5032 13.2161 10.0715 13.2161C9.63977 13.2161 9.28978 13.566 9.28978 13.9978C9.28978 14.4295 9.63977 14.7795 10.0715 14.7795Z" fill="#DE7F0C"/>
</svg>
