<?xml version="1.0" standalone="no"?>
<!DOCTYPE svg PUBLIC "-//W3C//DTD SVG 20010904//EN"
 "http://www.w3.org/TR/2001/REC-SVG-20010904/DTD/svg10.dtd">
<svg version="1.0" xmlns="http://www.w3.org/2000/svg"
 width="260.000000pt" height="260.000000pt" viewBox="0 0 260.000000 260.000000"
 preserveAspectRatio="xMidYMid meet">
<metadata>
Created by potrace 1.11, written by Peter Selinger 2001-2013
</metadata>
<g transform="translate(0.000000,260.000000) scale(0.100000,-0.100000)"
fill="#000000" stroke="none">
<path d="M1305 2216 c-193 -129 -235 -341 -110 -554 27 -47 214 -273 386 -467
26 -30 70 -80 165 -191 28 -32 111 -128 184 -213 l133 -154 28 34 c53 64 72
158 49 241 -6 20 -30 62 -53 92 -34 45 -316 374 -352 412 -5 6 -31 35 -57 65
-323 378 -333 391 -361 471 -24 71 -17 169 15 241 15 31 26 57 25 57 -1 0 -25
-15 -52 -34z"/>
<path d="M1720 2241 c0 -4 14 -20 31 -37 46 -44 77 -102 87 -166 7 -47 5 -69
-14 -135 -28 -93 -28 -106 -9 -147 29 -62 115 -85 176 -49 68 40 94 180 53
293 -23 63 -88 140 -152 177 -51 30 -172 75 -172 64z"/>
<path d="M645 1867 c-91 -94 -104 -111 -164 -220 -21 -37 -21 -49 -21 -516 l0
-478 68 -64 c74 -72 180 -155 187 -147 3 3 4 341 3 751 l-3 746 -70 -72z"/>
<path d="M911 1297 c241 -189 309 -479 172 -739 -32 -61 -142 -188 -164 -188
-5 0 -9 -4 -9 -8 0 -5 28 -10 63 -11 206 -7 401 159 447 382 60 291 -162 566
-465 575 -50 2 -57 0 -44 -11z"/>
<path d="M1654 630 c-127 -56 -89 -243 48 -243 76 0 131 54 131 128 0 94 -93
154 -179 115z"/>
</g>
</svg>
