<svg width="16" height="18" viewBox="0 0 16 18" fill="none" xmlns="http://www.w3.org/2000/svg">
<path d="M13.1311 13.0686L12.1419 14.0468C11.4128 14.7623 10.4669 15.6823 9.30365 16.8069C8.57682 17.5097 7.42365 17.5097 6.6969 16.8067L3.78762 13.9768C3.42199 13.6178 3.11593 13.3151 2.8694 13.0686C0.035722 10.2349 0.035722 5.64057 2.8694 2.8069C5.70307 -0.0267781 10.2974 -0.0267781 13.1311 2.8069C15.9647 5.64057 15.9647 10.2349 13.1311 13.0686ZM10.0837 8.16666C10.0837 7.01595 9.1509 6.08313 8.00024 6.08313C6.84957 6.08313 5.91672 7.01595 5.91672 8.16666C5.91672 9.31732 6.84957 10.2502 8.00024 10.2502C9.1509 10.2502 10.0837 9.31732 10.0837 8.16666Z" fill="url(#paint0_linear_1800_2184)"/>
<defs>
<linearGradient id="paint0_linear_1800_2184" x1="8.00023" y1="0.681641" x2="7.95121" y2="17.3338" gradientUnits="userSpaceOnUse">
<stop stop-color="#832729"/>
<stop offset="1" stop-color="#631517"/>
</linearGradient>
</defs>
</svg>
